<svg width="341" height="345" viewBox="0 0 341 345" fill="none" xmlns="http://www.w3.org/2000/svg">
<g filter="url(#filter0_d_83_41)">
<ellipse cx="170.128" cy="168.326" rx="165.128" ry="167.326" fill="white"/>
<path fill-rule="evenodd" clip-rule="evenodd" d="M82.2183 116.167C75.4601 129.545 75.1423 145.21 81.3525 158.844L118.731 240.906C121.231 246.396 126.763 249.927 132.862 249.927H142.72C148.595 249.927 153.964 246.648 156.585 241.459L190.096 175.124C192.266 170.828 192.266 165.776 190.096 161.48L156.292 94.5636C150.355 82.8115 159.016 69 172.322 69H184.95C191.743 69 197.95 72.7912 200.981 78.79L242.216 160.415C244.725 165.382 244.725 171.222 242.216 176.189L210.092 239.778C207.735 244.444 211.174 249.927 216.457 249.927C219.153 249.927 221.618 248.422 222.821 246.04L258.688 175.042C260.843 170.775 260.859 165.761 258.73 161.482L231.01 105.763C228.83 101.381 230.662 96.0853 235.102 93.9341C239.542 91.7828 244.908 93.5909 247.088 97.9726L278.187 160.482C280.648 165.429 280.63 171.226 278.138 176.159L236.888 257.814C233.858 263.813 227.65 267.604 220.857 267.604H204.965C191.659 267.604 182.998 253.793 188.935 242.04L222.739 175.124C224.909 170.828 224.909 165.776 222.739 161.48L186.511 89.7653C185.555 87.8729 183.596 86.6768 181.453 86.6768C177.256 86.6768 174.523 91.034 176.396 94.7415L209.573 160.415C212.082 165.382 212.082 171.222 209.573 176.189L168.338 257.814C165.308 263.813 159.1 267.604 152.307 267.604H122.84C115.789 267.604 109.393 263.521 106.502 257.175L65.015 166.092C56.6026 147.623 57.033 126.403 66.1878 108.281C82.8884 75.2216 130.924 75.9109 146.644 109.435L170.681 160.698C172.986 165.614 172.88 171.301 170.394 176.13L145.432 224.605C143.192 228.957 137.8 230.692 133.391 228.481C128.981 226.269 127.223 220.949 129.464 216.597L151.019 174.736C153.17 170.559 153.262 165.64 151.268 161.388L130.388 116.859C120.976 96.7874 92.217 96.3748 82.2183 116.167Z" fill="#C20E1A"/>
</g>
<defs>
<filter id="filter0_d_83_41" x="0" y="0" width="340.256" height="344.652" filterUnits="userSpaceOnUse" color-interpolation-filters="sRGB">
<feFlood flood-opacity="0" result="BackgroundImageFix"/>
<feColorMatrix in="SourceAlpha" type="matrix" values="0 0 0 0 0 0 0 0 0 0 0 0 0 0 0 0 0 0 127 0" result="hardAlpha"/>
<feOffset dy="4"/>
<feGaussianBlur stdDeviation="2.5"/>
<feComposite in2="hardAlpha" operator="out"/>
<feColorMatrix type="matrix" values="0 0 0 0 0 0 0 0 0 0 0 0 0 0 0 0 0 0 0.25 0"/>
<feBlend mode="normal" in2="BackgroundImageFix" result="effect1_dropShadow_83_41"/>
<feBlend mode="normal" in="SourceGraphic" in2="effect1_dropShadow_83_41" result="shape"/>
</filter>
</defs>
</svg>
